PathFileType	4	(X/Y/Z)	C:/Users/dbak576/Desktop/Duncan Bakke Modelling Files/Output/AB08/StaticAB08.trc	
DataRate	CameraRate	NumFrames	NumMarkers	Units	OrigDataRate	OrigDataStartFrame	OrigNumFrames	
200.00	200.00	7	42	mm	200.00	1	125	
Frame#	Time	LASI			RASI			LPSI			RPSI			LTH1			LTH2			LTH3			LTH4			LMFC			LLFC			LTB1			LTB2			LTB3			LTB4			LMMAL			LLMAL			LCAL			LToe			LMT1			LMT5			RTH1			RTH2			RTH3			RTH4			RMFC			RLFC			RTB1			RTB2			RTB3			RTB4			RMMAL			RLMAL			RCAL			RToe			RMT1			RMT5			C7			T10			LACR1			RACR1			CLAV			RBack			
		X1	Y1	Z1	X2	Y2	Z2	X3	Y3	Z3	X4	Y4	Z4	X5	Y5	Z5	X6	Y6	Z6	X7	Y7	Z7	X8	Y8	Z8	X9	Y9	Z9	X10	Y10	Z10	X11	Y11	Z11	X12	Y12	Z12	X13	Y13	Z13	X14	Y14	Z14	X15	Y15	Z15	X16	Y16	Z16	X17	Y17	Z17	X18	Y18	Z18	X19	Y19	Z19	X20	Y20	Z20	X21	Y21	Z21	X22	Y22	Z22	X23	Y23	Z23	X24	Y24	Z24	X25	Y25	Z25	X26	Y26	Z26	X27	Y27	Z27	X28	Y28	Z28	X29	Y29	Z29	X30	Y30	Z30	X31	Y31	Z31	X32	Y32	Z32	X33	Y33	Z33	X34	Y34	Z34	X35	Y35	Z35	X36	Y36	Z36	X37	Y37	Z37	X38	Y38	Z38	X39	Y39	Z39	X40	Y40	Z40	X41	Y41	Z41	X42	Y42	Z42	

1	0.000	356.68439	917.44543	973.27875	606.38434	914.96942	991.31934	420.15591	694.70337	1007.84088	546.35309	686.54626	1013.08746	337.72015	919.00287	681.27777	327.09909	896.77765	649.50378	373.37665	897.10181	601.61469	356.86078	908.67682	637.62439	444.65964	828.76111	508.29739	320.84573	800.55273	520.63800	290.51816	770.30780	428.63306	287.41873	759.69958	344.67374	302.32684	812.93634	341.41278	298.45331	805.64825	381.30420	383.67847	797.96783	121.31312	298.54373	774.59521	116.42323	338.88388	705.39404	52.40326	354.89923	1008.88696	46.16573	384.70316	920.34528	48.11177	263.14398	902.05084	40.30090	612.13098	917.21600	706.22241	601.75372	899.81201	643.42664	645.09271	860.74475	624.01178	652.62030	879.77344	678.66528	522.11810	828.83087	507.94476	648.31122	803.28070	531.13867	663.08301	815.05591	418.39532	653.93347	826.78314	381.25687	647.77423	831.62390	330.82056	679.94940	788.03790	334.91660	584.19843	799.55072	122.99582	671.58112	771.13507	113.32361	625.40588	700.51337	57.20286	617.55524	1003.93494	42.27291	586.24622	911.23962	42.28167	708.69226	891.52618	43.79948	450.71652	726.80231	1498.87781	456.59747	692.16980	1243.05200	289.43750	796.56482	1478.61780	611.10065	777.97791	1491.00574	461.74249	889.52185	1455.45642	573.12769	680.09369	1397.11011 
2	0.005	356.62796	917.42157	973.24805	606.30994	914.98853	991.33643	420.08917	694.72040	1007.78546	546.31671	686.55457	1013.10370	337.64758	919.04962	681.27209	327.05405	896.73328	649.43427	373.30151	897.13782	601.61499	356.78772	908.67505	637.61749	444.64102	828.74646	508.27621	320.82858	800.54321	520.62622	290.50262	770.25238	428.64899	287.37354	759.70343	344.62671	302.27817	812.88501	341.37231	298.40619	805.61816	381.28513	383.66391	797.96332	121.28717	298.53738	774.59570	116.40816	338.91373	705.36737	52.40861	354.90445	1008.89252	46.14943	384.71194	920.36682	48.10270	263.15030	902.05518	40.30038	611.67590	917.23633	706.05438	600.96741	899.07373	642.98138	645.02393	860.81299	624.03198	652.55536	879.81268	678.70172	522.08423	828.82922	507.95004	648.26447	803.28796	531.15350	663.06018	815.09088	418.42181	653.89355	826.78149	381.21710	647.73865	831.64886	330.82059	679.92322	788.05487	334.91595	584.19843	799.55072	122.99582	671.58112	771.13507	113.32362	625.37402	700.50763	57.18586	617.54480	1003.89972	42.25381	586.23883	911.19397	42.30359	708.67480	891.53833	43.77916	450.71487	726.79901	1498.86072	456.53552	692.12964	1243.05530	289.38968	796.61133	1478.61536	611.05426	777.95898	1490.96252	461.68457	889.57495	1455.42871	573.03632	680.07916	1397.08569 
3	0.010	356.50745	917.39923	973.21753	606.26611	915.00067	991.34625	420.04730	694.72473	1007.79932	546.24359	686.58887	1013.08032	337.62616	919.01837	681.26080	326.94742	896.75275	649.45764	373.22696	897.08496	601.58679	356.69623	908.67535	637.60577	444.60690	828.79309	508.28177	320.76135	800.47070	520.61517	290.48566	770.20282	428.62210	287.46387	760.44781	344.76892	302.25717	812.93127	341.35153	298.37985	805.55029	381.28900	383.66495	797.97601	121.26554	298.51324	774.57507	116.40359	338.90671	705.37201	52.38870	354.87061	1008.88525	46.16179	384.67731	920.37128	48.06704	263.15616	902.06854	40.28556	612.18347	917.31830	706.27771	600.89587	899.13733	643.00195	645.00897	860.81439	624.02826	652.54425	879.84290	678.71527	521.98944	828.79645	507.94452	648.21173	803.30994	531.15851	663.01996	815.08362	418.40356	653.87054	826.82208	381.23282	647.70575	831.68866	330.81519	679.90820	788.07294	334.93594	584.19995	799.53497	122.96429	671.58759	771.16083	113.32426	625.38800	700.47870	57.15773	617.57880	1004.15997	42.52992	586.24426	911.18732	42.28063	708.67480	891.53833	43.77915	450.65341	726.85864	1498.85364	456.42795	692.21704	1242.94751	289.32748	796.62030	1478.64844	610.97687	777.97870	1490.90979	461.59378	889.57605	1455.40063	572.96649	680.06671	1397.06409 
4	0.015	356.41757	917.41772	973.17389	606.20044	915.06580	991.33832	420.01791	694.77008	1007.78021	546.22064	686.60522	1013.05713	337.56540	919.00934	681.23541	326.93399	896.72125	649.41608	373.12491	897.10663	601.55524	356.64105	908.67755	637.59106	444.56876	828.84613	508.31308	320.76218	800.46008	520.58441	290.45850	770.12140	428.59808	287.48022	760.38507	344.75562	302.21289	812.83740	341.31262	298.34271	805.55518	381.26962	383.66391	797.96332	121.28717	298.51254	774.58392	116.36008	338.89572	705.33429	52.35857	354.85892	1008.84760	46.14251	384.67554	920.35760	48.04987	263.14676	902.04041	40.23257	611.58838	917.28864	706.06177	600.86633	899.14709	642.96326	644.94061	860.86713	624.02441	652.44733	879.86914	678.70117	521.98950	828.79645	507.94452	648.23669	803.34430	531.16248	662.96967	815.12634	418.42770	653.86780	826.82416	381.23444	647.70313	831.69220	330.82202	679.90643	788.07373	334.97260	584.16058	799.53314	122.98248	671.59003	771.19812	113.30558	625.40009	700.50543	57.15768	617.50507	1003.90338	42.24898	586.22076	911.17578	42.28435	708.67285	891.52570	43.76261	450.56058	726.82800	1498.85095	456.34271	692.22809	1242.93152	289.23819	796.62915	1478.66101	610.90436	777.95911	1490.87292	461.55768	889.59296	1455.37170	572.87018	680.07904	1397.01746 
5	0.020	356.28085	917.41064	973.15051	606.10095	915.11163	991.34393	419.91922	694.73956	1007.76965	546.11761	686.62207	1013.01251	337.48453	918.93427	681.21863	326.83817	896.71606	649.35492	373.11356	897.07312	601.55377	356.60291	908.65875	637.55359	444.51157	828.79950	508.32480	320.69653	800.45569	520.56763	290.45139	770.12207	428.57230	287.45236	760.39014	344.73499	302.18842	812.79639	341.26807	298.28906	805.45618	381.17932	383.65164	797.96503	121.26681	298.48828	774.53687	116.34321	338.88614	705.33710	52.31935	354.89001	1008.83136	46.10774	384.67346	920.32843	48.06901	263.11685	902.01465	40.24571	611.49243	917.33337	706.04303	600.82867	899.19104	642.97888	644.90143	860.93561	624.03857	652.43903	879.86218	678.70172	521.93719	828.82581	507.92477	648.14789	803.38672	531.14771	662.97382	815.14270	418.40482	653.81085	826.84052	381.23672	647.70392	831.68909	330.81366	679.86047	788.12952	334.97275	584.15912	799.53564	122.98574	671.56110	771.17853	113.32034	625.34131	700.48669	57.15934	617.47516	1003.86926	42.22047	586.26337	911.15143	42.26125	708.65466	891.55621	43.76300	450.52167	726.84802	1498.83923	456.29062	692.28772	1242.91357	289.20456	796.65448	1478.66443	610.85706	777.98193	1490.83862	461.50824	889.57556	1455.31555	572.81061	680.10626	1397.01306 
6	0.025	356.20618	917.38202	973.13861	606.07587	915.12146	991.34216	419.92050	694.74469	1007.73492	546.05347	686.66919	1013.01324	337.42633	918.94037	681.20020	326.78488	896.70807	649.37439	373.04907	897.04419	601.55560	356.54736	908.64301	637.52759	444.48956	828.76898	508.27344	320.66968	800.41858	520.55139	290.42963	770.04150	428.57236	287.42349	760.28912	344.68445	302.12265	812.72888	341.25153	298.28073	805.43658	381.20313	383.67041	797.99548	121.26800	298.49033	774.55328	116.31901	338.88586	705.34210	52.33746	354.87384	1008.85083	46.10809	384.67947	920.36237	48.04361	263.04181	901.98535	40.22765	611.44086	917.34387	706.03094	600.78357	899.20630	642.96960	644.83728	860.90076	624.02155	652.37158	879.92139	678.68195	521.90845	828.82172	507.93115	648.13879	803.36279	531.16058	662.95074	815.15326	418.46072	653.80011	826.89032	381.26300	647.67126	831.71912	330.80490	679.84113	788.11755	334.98505	584.13275	799.54053	122.98844	671.56396	771.17151	113.30241	625.39050	700.50146	57.15070	617.58105	1004.12476	42.48536	586.23547	911.16345	42.22995	708.65295	891.54468	43.74475	450.45847	726.86554	1498.83630	456.22250	692.23486	1242.92993	289.16489	796.67072	1478.68628	610.82971	777.97247	1490.80188	461.44150	889.58844	1455.28284	572.75159	680.13422	1396.97424 
7	0.030	356.10327	917.38013	973.13483	605.98718	915.12714	991.36261	419.84756	694.79895	1007.74664	545.99341	686.69800	1013.00818	337.37277	918.94073	681.18628	326.71304	896.68414	649.36115	373.04343	897.06317	601.51312	356.54279	908.65796	637.54071	444.49490	828.75598	508.32120	320.64581	800.39929	520.55121	290.36682	770.06055	428.54211	287.42035	760.25739	344.67310	302.13016	812.74829	341.27725	298.17294	805.42798	381.18246	383.67017	797.99573	121.26703	298.48547	774.54663	116.33146	338.87967	705.30408	52.32831	354.87631	1008.84369	46.11712	384.66965	920.34857	48.07953	263.03641	902.00726	40.23154	611.38196	917.38824	706.01239	600.77289	899.23157	642.93591	644.81030	860.93683	624.03326	652.34546	879.94922	678.72247	521.91022	828.81921	507.93057	648.14301	803.37427	531.17847	662.97931	815.15973	418.46686	653.79688	826.89581	381.25989	647.66296	831.73602	330.82693	679.85809	788.06537	334.99564	584.12714	799.53833	122.99436	671.54785	771.15765	113.34794	625.34351	700.49121	57.12061	617.53363	1003.90875	42.21377	586.25348	911.16589	42.22563	708.65216	891.54517	43.74316	450.41669	726.87067	1498.81531	456.17590	692.31366	1242.92322	289.11310	796.66846	1478.72791	610.74738	778.00958	1490.78906	461.39783	889.55945	1455.27673	572.65723	680.15381	1396.96826 
